{
    "accessors": {
        "accessor_55": {
            "bufferView": "bufferView_69",
            "byteOffset": 0,
            "byteStride": 0,
            "componentType": 5123,
            "count": 6,
            "type": "SCALAR"
        },
        "accessor_58": {
            "bufferView": "bufferView_69",
            "byteOffset": 12,
            "byteStride": 0,
            "componentType": 5123,
            "count": 30,
            "type": "SCALAR"
        },
        "accessor_61": {
            "bufferView": "bufferView_69",
            "byteOffset": 72,
            "byteStride": 0,
            "componentType": 5123,
            "count": 144,
            "type": "SCALAR"
        },
        "accessor_63": {
            "bufferView": "bufferView_70",
            "byteOffset": 0,
            "byteStride": 12,
            "componentType": 5126,
            "count": 120,
            "max": [
                4.7091,
                0.513459,
                4.26472
            ],
            "min": [
                -5.82285,
                -1.07744e-016,
                -4.27142
            ],
            "type": "VEC3"
        },
        "accessor_65": {
            "bufferView": "bufferView_70",
            "byteOffset": 1440,
            "byteStride": 12,
            "componentType": 5126,
            "count": 120,
            "max": [
                1,
                1,
                1
            ],
            "min": [
                -1,
                -1,
                -1
            ],
            "type": "VEC3"
        },
        "accessor_67": {
            "bufferView": "bufferView_70",
            "byteOffset": 2880,
            "byteStride": 8,
            "componentType": 5126,
            "count": 120,
            "max": [
                3.45067,
                2.44258
            ],
            "min": [
                -1.45375,
                -1.48248
            ],
            "type": "VEC2"
        }
    },
    "animations": {},
    "asset": {
        "generator": "collada2gltf@cf6371beb0bdc18ba603378d5e40c966da53d385",
        "premultipliedAlpha": true,
        "profile": {
            "api": "WebGL",
            "version": "1.0.2"
        },
        "version": "1.0"
    },
    "bufferViews": {
        "bufferView_69": {
            "buffer": "\\jiajing\\soft\\applywb\\others\\ZBYQ\\ZBYQ01\\down",
            "byteLength": 360,
            "byteOffset": 0,
            "target": 34963
        },
        "bufferView_70": {
            "buffer": "\\jiajing\\soft\\applywb\\others\\ZBYQ\\ZBYQ01\\down",
            "byteLength": 3840,
            "byteOffset": 360,
            "target": 34962
        }
    },
    "buffers": {
        "\\jiajing\\soft\\applywb\\others\\ZBYQ\\ZBYQ01\\down": {
            "byteLength": 4200,
            "type": "arraybuffer",
            "uri": "data:application/octet-stream;base64,"
        }
    },
    "images": {
        "BYQ_dimian_jpg": {
            "name": "BYQ_dimian_jpg",
            "uri": "images/BYQ_dimian.jpg"
        },
        "dimian_jpg": {
            "name": "dimian_jpg",
            "uri": "images/dimian.jpg"
        }
    },
    "materials": {
        "lambert21": {
            "name": "lambert21",
            "technique": "technique0",
            "values": {
                "ambient": [
                    0,
                    0,
                    0,
                    1
                ],
                "diffuse": "texture_BYQ_dimian_jpg",
                "emission": [
                    0,
                    0,
                    0,
                    1
                ],
                "shininess": 0,
                "specular": [
                    0,
                    0,
                    0,
                    1
                ]
            }
        },
        "pasted__lambert11": {
            "name": "pasted__lambert11",
            "technique": "technique1",
            "values": {
                "ambient": [
                    0,
                    0,
                    0,
                    1
                ],
                "diffuse": [
                    0.8,
                    0.51736,
                    0,
                    1
                ],
                "emission": [
                    0,
                    0,
                    0,
                    1
                ],
                "shininess": 0,
                "specular": [
                    0,
                    0,
                    0,
                    1
                ]
            }
        },
        "pasted__lambert22": {
            "name": "pasted__lambert22",
            "technique": "technique0",
            "values": {
                "ambient": [
                    0,
                    0,
                    0,
                    1
                ],
                "diffuse": "texture_dimian_jpg",
                "emission": [
                    0,
                    0,
                    0,
                    1
                ],
                "shininess": 0,
                "specular": [
                    0,
                    0,
                    0,
                    1
                ]
            }
        }
    },
    "meshes": {
        "geom-polySurface29": {
            "name": "polySurface29",
            "primitives": [
                {
                    "attributes": {
                        "NORMAL": "accessor_65",
                        "POSITION": "accessor_63",
                        "TEXCOORD_0": "accessor_67"
                    },
                    "indices": "accessor_55",
                    "material": "lambert21",
                    "mode": 4
                },
                {
                    "attributes": {
                        "NORMAL": "accessor_65",
                        "POSITION": "accessor_63",
                        "TEXCOORD_0": "accessor_67"
                    },
                    "indices": "accessor_58",
                    "material": "pasted__lambert22",
                    "mode": 4
                },
                {
                    "attributes": {
                        "NORMAL": "accessor_65",
                        "POSITION": "accessor_63",
                        "TEXCOORD_0": "accessor_67"
                    },
                    "indices": "accessor_61",
                    "material": "pasted__lambert11",
                    "mode": 4
                }
            ]
        }
    },
    "nodes": {
        "node-group139": {
            "children": [
                "node-polySurface29"
            ],
            "matrix": [
                1,
                0,
                0,
                0,
                0,
                4.48966e-011,
                1,
                0,
                0,
                -1,
                4.48966e-011,
                0,
                0.556875,
                -0.00335098,
                0,
                1
            ],
            "name": "group139"
        },
        "node-polySurface29": {
            "children": [],
            "matrix": [
                1,
                0,
                0,
                0,
                0,
                1,
                0,
                0,
                0,
                0,
                1,
                0,
                0,
                0,
                0,
                1
            ],
            "meshes": [
                "geom-polySurface29"
            ],
            "name": "polySurface29"
        },
        "node_0": {
            "children": [],
            "matrix": [
                1,
                0,
                0,
                0,
                0,
                1,
                0,
                0,
                0,
                0,
                1,
                0,
                0,
                0,
                0,
                1
            ],
            "name": "EnvironmentAmbientLight"
        },
        "node_3": {
            "children": [
                "node_0",
                "node-group139"
            ],
            "matrix": [
                1,
                0,
                0,
                0,
                0,
                0,
                -1,
                0,
                0,
                1,
                0,
                0,
                0,
                0,
                0,
                1
            ],
            "name": "Y_UP_Transform"
        }
    },
    "programs": {
        "program_0": {
            "attributes": [
                "a_normal",
                "a_position",
                "a_texcoord0"
            ],
            "fragmentShader": "\\jiajing\\soft\\applywb\\others\\ZBYQ\\ZBYQ01\\down0FS",
            "vertexShader": "\\jiajing\\soft\\applywb\\others\\ZBYQ\\ZBYQ01\\down0VS"
        },
        "program_1": {
            "attributes": [
                "a_normal",
                "a_position"
            ],
            "fragmentShader": "\\jiajing\\soft\\applywb\\others\\ZBYQ\\ZBYQ01\\down1FS",
            "vertexShader": "\\jiajing\\soft\\applywb\\others\\ZBYQ\\ZBYQ01\\down1VS"
        }
    },
    "samplers": {
        "sampler_0": {
            "magFilter": 9729,
            "minFilter": 9729,
            "wrapS": 10497,
            "wrapT": 10497
        }
    },
    "scene": "defaultScene",
    "scenes": {
        "defaultScene": {
            "nodes": [
                "node_3"
            ]
        }
    },
    "shaders": {
        "\\jiajing\\soft\\applywb\\others\\ZBYQ\\ZBYQ01\\down0FS": {
            "type": 35632,
            "uri": "data:text/plain;base64,"
        },
        "\\jiajing\\soft\\applywb\\others\\ZBYQ\\ZBYQ01\\down0VS": {
            "type": 35633,
            "uri": "data:text/plain;base64,"
        },
        "\\jiajing\\soft\\applywb\\others\\ZBYQ\\ZBYQ01\\down1FS": {
            "type": 35632,
            "uri": "data:text/plain;base64,"
        },
        "\\jiajing\\soft\\applywb\\others\\ZBYQ\\ZBYQ01\\down1VS": {
            "type": 35633,
            "uri": "data:text/plain;base64,"
        }
    },
    "skins": {},
    "techniques": {
        "technique0": {
            "attributes": {
                "a_normal": "normal",
                "a_position": "position",
                "a_texcoord0": "texcoord0"
            },
            "parameters": {
                "ambient": {
                    "type": 35666
                },
                "diffuse": {
                    "type": 35678
                },
                "emission": {
                    "type": 35666
                },
                "modelViewMatrix": {
                    "semantic": "MODELVIEW",
                    "type": 35676
                },
                "normal": {
                    "semantic": "NORMAL",
                    "type": 35665
                },
                "normalMatrix": {
                    "semantic": "MODELVIEWINVERSETRANSPOSE",
                    "type": 35675
                },
                "position": {
                    "semantic": "POSITION",
                    "type": 35665
                },
                "projectionMatrix": {
                    "semantic": "PROJECTION",
                    "type": 35676
                },
                "shininess": {
                    "type": 5126
                },
                "specular": {
                    "type": 35666
                },
                "texcoord0": {
                    "semantic": "TEXCOORD_0",
                    "type": 35664
                }
            },
            "program": "program_0",
            "states": {
                "enable": [
                    2929,
                    2884
                ]
            },
            "uniforms": {
                "u_ambient": "ambient",
                "u_diffuse": "diffuse",
                "u_emission": "emission",
                "u_modelViewMatrix": "modelViewMatrix",
                "u_normalMatrix": "normalMatrix",
                "u_projectionMatrix": "projectionMatrix",
                "u_shininess": "shininess",
                "u_specular": "specular"
            }
        },
        "technique1": {
            "attributes": {
                "a_normal": "normal",
                "a_position": "position"
            },
            "parameters": {
                "ambient": {
                    "type": 35666
                },
                "diffuse": {
                    "type": 35666
                },
                "emission": {
                    "type": 35666
                },
                "modelViewMatrix": {
                    "semantic": "MODELVIEW",
                    "type": 35676
                },
                "normal": {
                    "semantic": "NORMAL",
                    "type": 35665
                },
                "normalMatrix": {
                    "semantic": "MODELVIEWINVERSETRANSPOSE",
                    "type": 35675
                },
                "position": {
                    "semantic": "POSITION",
                    "type": 35665
                },
                "projectionMatrix": {
                    "semantic": "PROJECTION",
                    "type": 35676
                },
                "shininess": {
                    "type": 5126
                },
                "specular": {
                    "type": 35666
                }
            },
            "program": "program_1",
            "states": {
                "enable": [
                    2929,
                    2884
                ]
            },
            "uniforms": {
                "u_ambient": "ambient",
                "u_diffuse": "diffuse",
                "u_emission": "emission",
                "u_modelViewMatrix": "modelViewMatrix",
                "u_normalMatrix": "normalMatrix",
                "u_projectionMatrix": "projectionMatrix",
                "u_shininess": "shininess",
                "u_specular": "specular"
            }
        }
    },
    "textures": {
        "texture_BYQ_dimian_jpg": {
            "format": 6408,
            "internalFormat": 6408,
            "sampler": "sampler_0",
            "source": "BYQ_dimian_jpg",
            "target": 3553,
            "type": 5121
        },
        "texture_dimian_jpg": {
            "format": 6408,
            "internalFormat": 6408,
            "sampler": "sampler_0",
            "source": "dimian_jpg",
            "target": 3553,
            "type": 5121
        }
    }
}