{
    "accessors": {
        "accessor_123": {
            "bufferView": "bufferView_149",
            "byteOffset": 0,
            "byteStride": 0,
            "componentType": 5123,
            "count": 474,
            "type": "SCALAR"
        },
        "accessor_126": {
            "bufferView": "bufferView_149",
            "byteOffset": 948,
            "byteStride": 0,
            "componentType": 5123,
            "count": 11016,
            "type": "SCALAR"
        },
        "accessor_129": {
            "bufferView": "bufferView_149",
            "byteOffset": 22980,
            "byteStride": 0,
            "componentType": 5123,
            "count": 1668,
            "type": "SCALAR"
        },
        "accessor_132": {
            "bufferView": "bufferView_149",
            "byteOffset": 26316,
            "byteStride": 0,
            "componentType": 5123,
            "count": 22704,
            "type": "SCALAR"
        },
        "accessor_135": {
            "bufferView": "bufferView_149",
            "byteOffset": 71724,
            "byteStride": 0,
            "componentType": 5123,
            "count": 1728,
            "type": "SCALAR"
        },
        "accessor_138": {
            "bufferView": "bufferView_149",
            "byteOffset": 75180,
            "byteStride": 0,
            "componentType": 5123,
            "count": 23808,
            "type": "SCALAR"
        },
        "accessor_141": {
            "bufferView": "bufferView_149",
            "byteOffset": 122796,
            "byteStride": 0,
            "componentType": 5123,
            "count": 1536,
            "type": "SCALAR"
        },
        "accessor_143": {
            "bufferView": "bufferView_150",
            "byteOffset": 0,
            "byteStride": 12,
            "componentType": 5126,
            "count": 40816,
            "max": [
                -0.451769,
                6.3208,
                2.77951
            ],
            "min": [
                -1.14842,
                0.509128,
                0.136465
            ],
            "type": "VEC3"
        },
        "accessor_145": {
            "bufferView": "bufferView_150",
            "byteOffset": 489792,
            "byteStride": 12,
            "componentType": 5126,
            "count": 40816,
            "max": [
                1,
                1,
                1
            ],
            "min": [
                -1,
                -1,
                -1
            ],
            "type": "VEC3"
        },
        "accessor_147": {
            "bufferView": "bufferView_150",
            "byteOffset": 979584,
            "byteStride": 8,
            "componentType": 5126,
            "count": 40816,
            "max": [
                0.997869,
                1.10287
            ],
            "min": [
                -0.26724,
                0
            ],
            "type": "VEC2"
        }
    },
    "animations": {},
    "asset": {
        "generator": "collada2gltf@cf6371beb0bdc18ba603378d5e40c966da53d385",
        "premultipliedAlpha": true,
        "profile": {
            "api": "WebGL",
            "version": "1.0.2"
        },
        "version": "1.0"
    },
    "bufferViews": {
        "bufferView_149": {
            "buffer": "\\jiajing\\soft\\applywb\\others\\ZBYQ\\ZBYQ01\\taoci-B",
            "byteLength": 125868,
            "byteOffset": 0,
            "target": 34963
        },
        "bufferView_150": {
            "buffer": "\\jiajing\\soft\\applywb\\others\\ZBYQ\\ZBYQ01\\taoci-B",
            "byteLength": 1306112,
            "byteOffset": 125868,
            "target": 34962
        }
    },
    "buffers": {
        "\\jiajing\\soft\\applywb\\others\\ZBYQ\\ZBYQ01\\taoci-B": {
            "byteLength": 1431980,
            "type": "arraybuffer",
            "uri": "data:application/octet-stream;base64,"
        }
    },
    "images": {
        "BYQ_01_jpg": {
            "name": "BYQ_01_jpg",
            "uri": "images/BYQ_01.jpg"
        },
        "BYQ_02_jpg": {
            "name": "BYQ_02_jpg",
            "uri": "images/BYQ_02.jpg"
        },
        "BYQ_04_jpg": {
            "name": "BYQ_04_jpg",
            "uri": "images/BYQ_04.jpg"
        },
        "BYQ_05_jpg": {
            "name": "BYQ_05_jpg",
            "uri": "images/BYQ_05.jpg"
        },
        "BYQ_08_jpg": {
            "name": "BYQ_08_jpg",
            "uri": "images/BYQ_08.jpg"
        },
        "secai_jpg": {
            "name": "secai_jpg",
            "uri": "images/secai.jpg"
        }
    },
    "materials": {
        "blinn10": {
            "name": "blinn10",
            "technique": "technique0",
            "values": {
                "ambient": [
                    0,
                    0,
                    0,
                    1
                ],
                "diffuse": "texture_secai_jpg",
                "emission": [
                    0,
                    0,
                    0,
                    1
                ],
                "shininess": 26.5805,
                "specular": [
                    0.5,
                    0.5,
                    0.5,
                    1
                ]
            }
        },
        "blinn5": {
            "name": "blinn5",
            "technique": "technique0",
            "values": {
                "ambient": [
                    0,
                    0,
                    0,
                    1
                ],
                "diffuse": "texture_BYQ_08_jpg",
                "emission": [
                    0,
                    0,
                    0,
                    1
                ],
                "shininess": 26.5805,
                "specular": [
                    0.5,
                    0.5,
                    0.5,
                    1
                ]
            }
        },
        "blinn6": {
            "name": "blinn6",
            "technique": "technique0",
            "values": {
                "ambient": [
                    0,
                    0,
                    0,
                    1
                ],
                "diffuse": "texture_BYQ_01_jpg",
                "emission": [
                    0,
                    0,
                    0,
                    1
                ],
                "shininess": 26.5805,
                "specular": [
                    0.5,
                    0.5,
                    0.5,
                    1
                ]
            }
        },
        "blinn7": {
            "name": "blinn7",
            "technique": "technique0",
            "values": {
                "ambient": [
                    0,
                    0,
                    0,
                    1
                ],
                "diffuse": "texture_BYQ_02_jpg",
                "emission": [
                    0,
                    0,
                    0,
                    1
                ],
                "shininess": 26.5805,
                "specular": [
                    0.5,
                    0.5,
                    0.5,
                    1
                ]
            }
        },
        "blinn8": {
            "name": "blinn8",
            "technique": "technique0",
            "values": {
                "ambient": [
                    0,
                    0,
                    0,
                    1
                ],
                "diffuse": "texture_BYQ_04_jpg",
                "emission": [
                    0,
                    0,
                    0,
                    1
                ],
                "shininess": 26.5805,
                "specular": [
                    0.5,
                    0.5,
                    0.5,
                    1
                ]
            }
        },
        "blinn9": {
            "name": "blinn9",
            "technique": "technique0",
            "values": {
                "ambient": [
                    0,
                    0,
                    0,
                    1
                ],
                "diffuse": "texture_BYQ_05_jpg",
                "emission": [
                    0,
                    0,
                    0,
                    1
                ],
                "shininess": 26.5805,
                "specular": [
                    0.5,
                    0.5,
                    0.5,
                    1
                ]
            }
        },
        "lambert15": {
            "name": "lambert15",
            "technique": "technique0",
            "values": {
                "ambient": [
                    0,
                    0,
                    0,
                    1
                ],
                "diffuse": "texture_BYQ_02_jpg",
                "emission": [
                    0,
                    0,
                    0,
                    1
                ],
                "shininess": 0,
                "specular": [
                    0,
                    0,
                    0,
                    1
                ]
            }
        }
    },
    "meshes": {
        "geom-group128": {
            "name": "group128",
            "primitives": [
                {
                    "attributes": {
                        "NORMAL": "accessor_145",
                        "POSITION": "accessor_143",
                        "TEXCOORD_0": "accessor_147"
                    },
                    "indices": "accessor_123",
                    "material": "lambert15",
                    "mode": 4
                },
                {
                    "attributes": {
                        "NORMAL": "accessor_145",
                        "POSITION": "accessor_143",
                        "TEXCOORD_0": "accessor_147"
                    },
                    "indices": "accessor_126",
                    "material": "blinn5",
                    "mode": 4
                },
                {
                    "attributes": {
                        "NORMAL": "accessor_145",
                        "POSITION": "accessor_143",
                        "TEXCOORD_0": "accessor_147"
                    },
                    "indices": "accessor_129",
                    "material": "blinn10",
                    "mode": 4
                },
                {
                    "attributes": {
                        "NORMAL": "accessor_145",
                        "POSITION": "accessor_143",
                        "TEXCOORD_0": "accessor_147"
                    },
                    "indices": "accessor_132",
                    "material": "blinn7",
                    "mode": 4
                },
                {
                    "attributes": {
                        "NORMAL": "accessor_145",
                        "POSITION": "accessor_143",
                        "TEXCOORD_0": "accessor_147"
                    },
                    "indices": "accessor_135",
                    "material": "blinn6",
                    "mode": 4
                },
                {
                    "attributes": {
                        "NORMAL": "accessor_145",
                        "POSITION": "accessor_143",
                        "TEXCOORD_0": "accessor_147"
                    },
                    "indices": "accessor_138",
                    "material": "blinn8",
                    "mode": 4
                },
                {
                    "attributes": {
                        "NORMAL": "accessor_145",
                        "POSITION": "accessor_143",
                        "TEXCOORD_0": "accessor_147"
                    },
                    "indices": "accessor_141",
                    "material": "blinn9",
                    "mode": 4
                }
            ]
        }
    },
    "nodes": {
        "node-group128": {
            "children": [],
            "matrix": [
                1,
                0,
                0,
                0,
                0,
                1,
                0,
                0,
                0,
                0,
                1,
                0,
                0,
                0,
                0,
                1
            ],
            "meshes": [
                "geom-group128"
            ],
            "name": "group128"
        },
        "node-group139": {
            "children": [
                "node-group128"
            ],
            "matrix": [
                1,
                0,
                0,
                0,
                0,
                4.48966e-011,
                1,
                0,
                0,
                -1,
                4.48966e-011,
                0,
                0.556875,
                -0.00335098,
                0,
                1
            ],
            "name": "group139"
        },
        "node_0": {
            "children": [],
            "matrix": [
                1,
                0,
                0,
                0,
                0,
                1,
                0,
                0,
                0,
                0,
                1,
                0,
                0,
                0,
                0,
                1
            ],
            "name": "EnvironmentAmbientLight"
        },
        "node_3": {
            "children": [
                "node_0",
                "node-group139"
            ],
            "matrix": [
                1,
                0,
                0,
                0,
                0,
                0,
                -1,
                0,
                0,
                1,
                0,
                0,
                0,
                0,
                0,
                1
            ],
            "name": "Y_UP_Transform"
        }
    },
    "programs": {
        "program_0": {
            "attributes": [
                "a_normal",
                "a_position",
                "a_texcoord0"
            ],
            "fragmentShader": "\\jiajing\\soft\\applywb\\others\\ZBYQ\\ZBYQ01\\taoci-B0FS",
            "vertexShader": "\\jiajing\\soft\\applywb\\others\\ZBYQ\\ZBYQ01\\taoci-B0VS"
        }
    },
    "samplers": {
        "sampler_0": {
            "magFilter": 9729,
            "minFilter": 9729,
            "wrapS": 10497,
            "wrapT": 10497
        }
    },
    "scene": "defaultScene",
    "scenes": {
        "defaultScene": {
            "nodes": [
                "node_3"
            ]
        }
    },
    "shaders": {
        "\\jiajing\\soft\\applywb\\others\\ZBYQ\\ZBYQ01\\taoci-B0FS": {
            "type": 35632,
            "uri": "data:text/plain;base64,"
        },
        "\\jiajing\\soft\\applywb\\others\\ZBYQ\\ZBYQ01\\taoci-B0VS": {
            "type": 35633,
            "uri": "data:text/plain;base64,"
        }
    },
    "skins": {},
    "techniques": {
        "technique0": {
            "attributes": {
                "a_normal": "normal",
                "a_position": "position",
                "a_texcoord0": "texcoord0"
            },
            "parameters": {
                "ambient": {
                    "type": 35666
                },
                "diffuse": {
                    "type": 35678
                },
                "emission": {
                    "type": 35666
                },
                "modelViewMatrix": {
                    "semantic": "MODELVIEW",
                    "type": 35676
                },
                "normal": {
                    "semantic": "NORMAL",
                    "type": 35665
                },
                "normalMatrix": {
                    "semantic": "MODELVIEWINVERSETRANSPOSE",
                    "type": 35675
                },
                "position": {
                    "semantic": "POSITION",
                    "type": 35665
                },
                "projectionMatrix": {
                    "semantic": "PROJECTION",
                    "type": 35676
                },
                "shininess": {
                    "type": 5126
                },
                "specular": {
                    "type": 35666
                },
                "texcoord0": {
                    "semantic": "TEXCOORD_0",
                    "type": 35664
                }
            },
            "program": "program_0",
            "states": {
                "enable": [
                    2929,
                    2884
                ]
            },
            "uniforms": {
                "u_ambient": "ambient",
                "u_diffuse": "diffuse",
                "u_emission": "emission",
                "u_modelViewMatrix": "modelViewMatrix",
                "u_normalMatrix": "normalMatrix",
                "u_projectionMatrix": "projectionMatrix",
                "u_shininess": "shininess",
                "u_specular": "specular"
            }
        }
    },
    "textures": {
        "texture_BYQ_01_jpg": {
            "format": 6408,
            "internalFormat": 6408,
            "sampler": "sampler_0",
            "source": "BYQ_01_jpg",
            "target": 3553,
            "type": 5121
        },
        "texture_BYQ_02_jpg": {
            "format": 6408,
            "internalFormat": 6408,
            "sampler": "sampler_0",
            "source": "BYQ_02_jpg",
            "target": 3553,
            "type": 5121
        },
        "texture_BYQ_04_jpg": {
            "format": 6408,
            "internalFormat": 6408,
            "sampler": "sampler_0",
            "source": "BYQ_04_jpg",
            "target": 3553,
            "type": 5121
        },
        "texture_BYQ_05_jpg": {
            "format": 6408,
            "internalFormat": 6408,
            "sampler": "sampler_0",
            "source": "BYQ_05_jpg",
            "target": 3553,
            "type": 5121
        },
        "texture_BYQ_08_jpg": {
            "format": 6408,
            "internalFormat": 6408,
            "sampler": "sampler_0",
            "source": "BYQ_08_jpg",
            "target": 3553,
            "type": 5121
        },
        "texture_secai_jpg": {
            "format": 6408,
            "internalFormat": 6408,
            "sampler": "sampler_0",
            "source": "secai_jpg",
            "target": 3553,
            "type": 5121
        }
    }
}