{
    "accessors": {
        "accessor_72": {
            "bufferView": "bufferView_89",
            "byteOffset": 0,
            "byteStride": 0,
            "componentType": 5123,
            "count": 1668,
            "type": "SCALAR"
        },
        "accessor_75": {
            "bufferView": "bufferView_89",
            "byteOffset": 3336,
            "byteStride": 0,
            "componentType": 5123,
            "count": 474,
            "type": "SCALAR"
        },
        "accessor_78": {
            "bufferView": "bufferView_89",
            "byteOffset": 4284,
            "byteStride": 0,
            "componentType": 5123,
            "count": 1644,
            "type": "SCALAR"
        },
        "accessor_81": {
            "bufferView": "bufferView_89",
            "byteOffset": 7572,
            "byteStride": 0,
            "componentType": 5123,
            "count": 11472,
            "type": "SCALAR"
        },
        "accessor_83": {
            "bufferView": "bufferView_90",
            "byteOffset": 0,
            "byteStride": 12,
            "componentType": 5126,
            "count": 9596,
            "max": [
                -2.76224,
                5.63217,
                -0.695826
            ],
            "min": [
                -3.45778,
                3.64687,
                -1.27367
            ],
            "type": "VEC3"
        },
        "accessor_85": {
            "bufferView": "bufferView_90",
            "byteOffset": 115152,
            "byteStride": 12,
            "componentType": 5126,
            "count": 9596,
            "max": [
                1,
                1,
                1
            ],
            "min": [
                -1,
                -1,
                -1
            ],
            "type": "VEC3"
        },
        "accessor_87": {
            "bufferView": "bufferView_90",
            "byteOffset": 230304,
            "byteStride": 8,
            "componentType": 5126,
            "count": 9596,
            "max": [
                0.997869,
                1
            ],
            "min": [
                0.189203,
                0
            ],
            "type": "VEC2"
        }
    },
    "animations": {},
    "asset": {
        "generator": "collada2gltf@cf6371beb0bdc18ba603378d5e40c966da53d385",
        "premultipliedAlpha": true,
        "profile": {
            "api": "WebGL",
            "version": "1.0.2"
        },
        "version": "1.0"
    },
    "bufferViews": {
        "bufferView_89": {
            "buffer": "\\jiajing\\soft\\applywb\\others\\ZBYQ\\ZBYQ01\\taoci-E",
            "byteLength": 30516,
            "byteOffset": 0,
            "target": 34963
        },
        "bufferView_90": {
            "buffer": "\\jiajing\\soft\\applywb\\others\\ZBYQ\\ZBYQ01\\taoci-E",
            "byteLength": 307072,
            "byteOffset": 30516,
            "target": 34962
        }
    },
    "buffers": {
        "\\jiajing\\soft\\applywb\\others\\ZBYQ\\ZBYQ01\\taoci-E": {
            "byteLength": 337588,
            "type": "arraybuffer",
            "uri": "data:application/octet-stream;base64,"
        }
    },
    "images": {
        "BYQ_02_jpg": {
            "name": "BYQ_02_jpg",
            "uri": "images/BYQ_02.jpg"
        },
        "BYQ_08_jpg": {
            "name": "BYQ_08_jpg",
            "uri": "images/BYQ_08.jpg"
        },
        "secai_jpg": {
            "name": "secai_jpg",
            "uri": "images/secai.jpg"
        }
    },
    "materials": {
        "blinn10": {
            "name": "blinn10",
            "technique": "technique0",
            "values": {
                "ambient": [
                    0,
                    0,
                    0,
                    1
                ],
                "diffuse": "texture_secai_jpg",
                "emission": [
                    0,
                    0,
                    0,
                    1
                ],
                "shininess": 26.5805,
                "specular": [
                    0.5,
                    0.5,
                    0.5,
                    1
                ]
            }
        },
        "blinn5": {
            "name": "blinn5",
            "technique": "technique0",
            "values": {
                "ambient": [
                    0,
                    0,
                    0,
                    1
                ],
                "diffuse": "texture_BYQ_08_jpg",
                "emission": [
                    0,
                    0,
                    0,
                    1
                ],
                "shininess": 26.5805,
                "specular": [
                    0.5,
                    0.5,
                    0.5,
                    1
                ]
            }
        },
        "blinn7": {
            "name": "blinn7",
            "technique": "technique0",
            "values": {
                "ambient": [
                    0,
                    0,
                    0,
                    1
                ],
                "diffuse": "texture_BYQ_02_jpg",
                "emission": [
                    0,
                    0,
                    0,
                    1
                ],
                "shininess": 26.5805,
                "specular": [
                    0.5,
                    0.5,
                    0.5,
                    1
                ]
            }
        },
        "lambert15": {
            "name": "lambert15",
            "technique": "technique0",
            "values": {
                "ambient": [
                    0,
                    0,
                    0,
                    1
                ],
                "diffuse": "texture_BYQ_02_jpg",
                "emission": [
                    0,
                    0,
                    0,
                    1
                ],
                "shininess": 0,
                "specular": [
                    0,
                    0,
                    0,
                    1
                ]
            }
        }
    },
    "meshes": {
        "geom-group116": {
            "name": "group116",
            "primitives": [
                {
                    "attributes": {
                        "NORMAL": "accessor_85",
                        "POSITION": "accessor_83",
                        "TEXCOORD_0": "accessor_87"
                    },
                    "indices": "accessor_72",
                    "material": "blinn10",
                    "mode": 4
                },
                {
                    "attributes": {
                        "NORMAL": "accessor_85",
                        "POSITION": "accessor_83",
                        "TEXCOORD_0": "accessor_87"
                    },
                    "indices": "accessor_75",
                    "material": "lambert15",
                    "mode": 4
                },
                {
                    "attributes": {
                        "NORMAL": "accessor_85",
                        "POSITION": "accessor_83",
                        "TEXCOORD_0": "accessor_87"
                    },
                    "indices": "accessor_78",
                    "material": "blinn5",
                    "mode": 4
                },
                {
                    "attributes": {
                        "NORMAL": "accessor_85",
                        "POSITION": "accessor_83",
                        "TEXCOORD_0": "accessor_87"
                    },
                    "indices": "accessor_81",
                    "material": "blinn7",
                    "mode": 4
                }
            ]
        }
    },
    "nodes": {
        "node-group116": {
            "children": [],
            "matrix": [
                1,
                0,
                0,
                0,
                0,
                1,
                0,
                0,
                0,
                0,
                1,
                0,
                0,
                0,
                0,
                1
            ],
            "meshes": [
                "geom-group116"
            ],
            "name": "group116"
        },
        "node-group139": {
            "children": [
                "node-group116"
            ],
            "matrix": [
                1,
                0,
                0,
                0,
                0,
                4.48966e-011,
                1,
                0,
                0,
                -1,
                4.48966e-011,
                0,
                0.556875,
                -0.00335098,
                0,
                1
            ],
            "name": "group139"
        },
        "node_0": {
            "children": [],
            "matrix": [
                1,
                0,
                0,
                0,
                0,
                1,
                0,
                0,
                0,
                0,
                1,
                0,
                0,
                0,
                0,
                1
            ],
            "name": "EnvironmentAmbientLight"
        },
        "node_3": {
            "children": [
                "node_0",
                "node-group139"
            ],
            "matrix": [
                1,
                0,
                0,
                0,
                0,
                0,
                -1,
                0,
                0,
                1,
                0,
                0,
                0,
                0,
                0,
                1
            ],
            "name": "Y_UP_Transform"
        }
    },
    "programs": {
        "program_0": {
            "attributes": [
                "a_normal",
                "a_position",
                "a_texcoord0"
            ],
            "fragmentShader": "\\jiajing\\soft\\applywb\\others\\ZBYQ\\ZBYQ01\\taoci-E0FS",
            "vertexShader": "\\jiajing\\soft\\applywb\\others\\ZBYQ\\ZBYQ01\\taoci-E0VS"
        }
    },
    "samplers": {
        "sampler_0": {
            "magFilter": 9729,
            "minFilter": 9729,
            "wrapS": 10497,
            "wrapT": 10497
        }
    },
    "scene": "defaultScene",
    "scenes": {
        "defaultScene": {
            "nodes": [
                "node_3"
            ]
        }
    },
    "shaders": {
        "\\jiajing\\soft\\applywb\\others\\ZBYQ\\ZBYQ01\\taoci-E0FS": {
            "type": 35632,
            "uri": "data:text/plain;base64,"
        },
        "\\jiajing\\soft\\applywb\\others\\ZBYQ\\ZBYQ01\\taoci-E0VS": {
            "type": 35633,
            "uri": "data:text/plain;base64,"
        }
    },
    "skins": {},
    "techniques": {
        "technique0": {
            "attributes": {
                "a_normal": "normal",
                "a_position": "position",
                "a_texcoord0": "texcoord0"
            },
            "parameters": {
                "ambient": {
                    "type": 35666
                },
                "diffuse": {
                    "type": 35678
                },
                "emission": {
                    "type": 35666
                },
                "modelViewMatrix": {
                    "semantic": "MODELVIEW",
                    "type": 35676
                },
                "normal": {
                    "semantic": "NORMAL",
                    "type": 35665
                },
                "normalMatrix": {
                    "semantic": "MODELVIEWINVERSETRANSPOSE",
                    "type": 35675
                },
                "position": {
                    "semantic": "POSITION",
                    "type": 35665
                },
                "projectionMatrix": {
                    "semantic": "PROJECTION",
                    "type": 35676
                },
                "shininess": {
                    "type": 5126
                },
                "specular": {
                    "type": 35666
                },
                "texcoord0": {
                    "semantic": "TEXCOORD_0",
                    "type": 35664
                }
            },
            "program": "program_0",
            "states": {
                "enable": [
                    2929,
                    2884
                ]
            },
            "uniforms": {
                "u_ambient": "ambient",
                "u_diffuse": "diffuse",
                "u_emission": "emission",
                "u_modelViewMatrix": "modelViewMatrix",
                "u_normalMatrix": "normalMatrix",
                "u_projectionMatrix": "projectionMatrix",
                "u_shininess": "shininess",
                "u_specular": "specular"
            }
        }
    },
    "textures": {
        "texture_BYQ_02_jpg": {
            "format": 6408,
            "internalFormat": 6408,
            "sampler": "sampler_0",
            "source": "BYQ_02_jpg",
            "target": 3553,
            "type": 5121
        },
        "texture_BYQ_08_jpg": {
            "format": 6408,
            "internalFormat": 6408,
            "sampler": "sampler_0",
            "source": "BYQ_08_jpg",
            "target": 3553,
            "type": 5121
        },
        "texture_secai_jpg": {
            "format": 6408,
            "internalFormat": 6408,
            "sampler": "sampler_0",
            "source": "secai_jpg",
            "target": 3553,
            "type": 5121
        }
    }
}